<svg xmlns="http://www.w3.org/2000/svg" width="121.803" height="22.02" viewBox="0 0 121.803 22.02"><path d="M15.606-92.863H7.874v20.639h7.732c6.586,0,10.819-4.2,10.819-10.319C26.425-88.688,22.192-92.863,15.606-92.863ZM12.9-76.575v-12h2.381c3.793,0,6.027,2.234,6.027,6.027s-2.234,5.968-6.027,5.968Zm25.607-9.29a4.207,4.207,0,0,1,4.528,4.087H34.069A4.412,4.412,0,0,1,38.508-85.866Zm7.585,8.82H42.477a3.922,3.922,0,0,1-3.822,2.264,4.456,4.456,0,0,1-4.616-4.292H46.417a10.339,10.339,0,0,0,.118-1.646,7.555,7.555,0,0,0-7.879-7.967c-4.792,0-8.085,3.263-8.085,8.35s3.44,8.379,8.085,8.379A7.4,7.4,0,0,0,46.094-77.046Zm4.851-3.263c0,5.116,3.263,8.35,7.85,8.35,4,0,6.615-2.234,7.438-5.439H63.351a4.322,4.322,0,0,1-4.557,3.175c-2.94,0-5.116-2.087-5.116-6.086,0-3.94,2.176-6.027,5.116-6.027a4.389,4.389,0,0,1,4.557,3.175h2.881c-.823-3.381-3.44-5.439-7.438-5.439C54.208-88.6,50.945-85.366,50.945-80.309Zm36.279-.029a7.989,7.989,0,0,0-8.261-8.35,7.989,7.989,0,0,0-8.261,8.35c0,5.086,3.5,8.379,8.114,8.379A8.114,8.114,0,0,0,87.224-80.339Zm-13.112,0c0-3.675,2.264-5.439,4.792-5.439,2.5,0,4.88,1.764,4.88,5.439s-2.47,5.468-4.969,5.468C76.287-74.87,74.111-76.664,74.111-80.339Zm17.258-.088c0,5.086,3.293,8.467,7.438,8.467a6.156,6.156,0,0,0,5.351-2.675v2.411h4.175V-93.98h-4.175v7.732a6.683,6.683,0,0,0-5.321-2.528C94.662-88.776,91.369-85.513,91.369-80.427Zm12.818.059c0,3.087-2.058,4.792-4.322,4.792-2.2,0-4.292-1.764-4.292-4.851s2.087-4.733,4.292-4.733C102.129-85.16,104.187-83.455,104.187-80.368Zm17.258-4.469a2.836,2.836,0,0,1,3.087,2.822H118.24A3.109,3.109,0,0,1,121.445-84.837Zm7.85,7.174h-5.351a2.673,2.673,0,0,1-2.617,1.588,3.041,3.041,0,0,1-3.116-3.146h11.378a12.7,12.7,0,0,0,.088-1.47c0-5-3.381-8.173-8.173-8.173-4.88,0-8.291,3.234-8.291,8.438s3.469,8.438,8.291,8.438A7.667,7.667,0,0,0,129.295-77.663Z" transform="translate(-7.874 93.98)"/></svg>