<svg xmlns="http://www.w3.org/2000/svg" xmlns:xlink="http://www.w3.org/1999/xlink" width="275" height="199.851" viewBox="0 0 275 199.851"><defs><style>.a{filter:url(#a);}</style><filter id="a" x="0" y="0" width="275" height="199.851" filterUnits="userSpaceOnUse"><feOffset dy="3" input="SourceAlpha"/><feGaussianBlur stdDeviation="7" result="b"/><feFlood flood-opacity="0.275"/><feComposite operator="in" in2="b"/><feComposite in="SourceGraphic"/></filter></defs><g class="a" transform="matrix(1, 0, 0, 1, 0, 0)"><path d="M-2682.555,23.8l-4-13.8H-2701a11,11,0,0,1-11-11V-118a11,11,0,0,1,11-11h211a11,11,0,0,1,11,11V-1a11,11,0,0,1-11,11h-164.561l-16.25,16.726a6.9,6.9,0,0,1-4.994,2.126A6.98,6.98,0,0,1-2682.555,23.8Z" transform="translate(2733 147)"/></g></svg>